<?xml version="1.0" encoding="UTF-8" standalone="no"?>
<!-- Created with Inkscape (http://www.inkscape.org/) -->

<svg
   xmlns:osb="http://www.openswatchbook.org/uri/2009/osb"
   xmlns:dc="http://purl.org/dc/elements/1.1/"
   xmlns:cc="http://creativecommons.org/ns#"
   xmlns:rdf="http://www.w3.org/1999/02/22-rdf-syntax-ns#"
   xmlns:svg="http://www.w3.org/2000/svg"
   xmlns="http://www.w3.org/2000/svg"
   xmlns:sodipodi="http://sodipodi.sourceforge.net/DTD/sodipodi-0.dtd"
   xmlns:inkscape="http://www.inkscape.org/namespaces/inkscape"
   width="892.85718"
   height="253.57143"
   viewBox="0 0 236.23513 67.090774"
   version="1.1"
   id="svg8"
   sodipodi:docname="garrethlogo.svg"
   inkscape:export-filename="D:\Code\html\Personal site\icons\garreth_lg_wh.png"
   inkscape:export-xdpi="96.019997"
   inkscape:export-ydpi="96.019997"
   inkscape:version="0.92.4 (5da689c313, 2019-01-14)">
  <defs
     id="defs2">
    <inkscape:perspective
       sodipodi:type="inkscape:persp3d"
       inkscape:vp_x="71.826201 : 39.6875 : 1"
       inkscape:vp_y="6.1230317e-14 : 1000 : 0"
       inkscape:vp_z="81.433201 : 13.229166 : 0"
       inkscape:persp3d-origin="153.25939 : 26.458334 : 1"
       id="perspective5802" />
    <linearGradient
       id="linearGradient5782"
       osb:paint="solid">
      <stop
         style="stop-color:#000000;stop-opacity:1;"
         offset="0"
         id="stop5780" />
    </linearGradient>
  </defs>
  <sodipodi:namedview
     id="base"
     pagecolor="#ffffff"
     bordercolor="#666666"
     borderopacity="1.0"
     inkscape:pageopacity="0.0"
     inkscape:pageshadow="2"
     inkscape:zoom="1.4"
     inkscape:cx="468.60312"
     inkscape:cy="-11.016539"
     inkscape:document-units="px"
     inkscape:current-layer="layer3"
     showgrid="false"
     units="px"
     fit-margin-top="0"
     fit-margin-left="0"
     fit-margin-right="0"
     fit-margin-bottom="0"
     inkscape:window-width="2456"
     inkscape:window-height="1411"
     inkscape:window-x="1911"
     inkscape:window-y="-9"
     inkscape:window-maximized="1" />
  <metadata
     id="metadata5">
    <rdf:RDF>
      <cc:Work
         rdf:about="">
        <dc:format>image/svg+xml</dc:format>
        <dc:type
           rdf:resource="http://purl.org/dc/dcmitype/StillImage" />
        <dc:title></dc:title>
      </cc:Work>
    </rdf:RDF>
  </metadata>
  <g
     inkscape:groupmode="layer"
     id="layer3"
     inkscape:label="bg"
     transform="translate(-0.94494706,7.1342573)">
    <rect
       style="opacity:1;fill:#f8f9fa;fill-opacity:1;stroke:none;stroke-width:0.26458335;stroke-opacity:1;paint-order:fill markers stroke"
       id="rect5858"
       width="262.69345"
       height="93.360123"
       x="-4.5357075"
       y="-12.614913"
       ry="4.9018826" />
  </g>
  <g
     inkscape:label="icon"
     inkscape:groupmode="layer"
     id="layer1"
     transform="translate(-11.673785,-86.555331)">
    <flowRoot
       xml:space="preserve"
       id="flowRoot5069"
       style="font-style:normal;font-variant:normal;font-weight:normal;font-stretch:normal;font-size:40px;line-height:1.25;font-family:'Century Gothic';-inkscape-font-specification:'Century Gothic, Normal';font-variant-ligatures:normal;font-variant-caps:normal;font-variant-numeric:normal;font-feature-settings:normal;text-align:start;letter-spacing:0px;word-spacing:0px;writing-mode:lr-tb;text-anchor:start;fill:#000000;fill-opacity:1;stroke:none"
       transform="matrix(0.77243687,0,0,0.77243687,6.4875022,-138.31387)"><flowRegion
         id="flowRegion5071"
         style="font-style:normal;font-variant:normal;font-weight:normal;font-stretch:normal;font-size:40px;font-family:'Century Gothic';-inkscape-font-specification:'Century Gothic, Normal';font-variant-ligatures:normal;font-variant-caps:normal;font-variant-numeric:normal;font-feature-settings:normal;text-align:start;writing-mode:lr-tb;text-anchor:start"><rect
           id="rect5073"
           width="600"
           height="174.28572"
           x="100"
           y="308.23398"
           style="font-style:normal;font-variant:normal;font-weight:normal;font-stretch:normal;font-size:40px;font-family:'Century Gothic';-inkscape-font-specification:'Century Gothic, Normal';font-variant-ligatures:normal;font-variant-caps:normal;font-variant-numeric:normal;font-feature-settings:normal;text-align:start;writing-mode:lr-tb;text-anchor:start" /></flowRegion><flowPara
         id="flowPara5075">garreth.ca</flowPara></flowRoot>    <flowRoot
       xml:space="preserve"
       id="flowRoot5077"
       style="font-style:normal;font-weight:normal;font-size:40px;line-height:1.25;font-family:sans-serif;letter-spacing:0px;word-spacing:0px;fill:#000000;fill-opacity:1;stroke:none"
       transform="scale(0.26458333)"><flowRegion
         id="flowRegion5079"><rect
           id="rect5081"
           width="11.111678"
           height="185.86807"
           x="524.26917"
           y="308.33673" /></flowRegion><flowPara
         id="flowPara5083"></flowPara></flowRoot>    <g
       id="g5144"
       transform="matrix(0.05011185,-0.1209807,0.1209807,0.05011185,5.7004389,138.30892)">
      <g
         id="g5142">
        <path
           inkscape:connector-curvature="0"
           d="m 500.582,211.434 -58.674,-14.428 c -3.532,-11.13 -8.068,-21.925 -13.551,-32.249 8.78,-14.634 27.343,-45.573 27.343,-45.573 3.541,-5.902 2.611,-13.457 -2.256,-18.324 L 411.018,58.434 c -4.867,-4.867 -12.422,-5.797 -18.324,-2.256 -0.38,0.228 -30.777,18.466 -45.626,27.355 C 336.799,78.102 326.073,73.606 315.016,70.099 310.588,52.123 300.565,11.413 300.564,11.413 298.914,4.711 292.902,0 286,0 h -60 c -6.903,0 -12.915,4.711 -14.565,11.414 -4.126,16.76 -11.024,44.779 -14.45,58.68 -11.762,3.73 -23.143,8.578 -34.001,14.482 -6.428,-3.856 -16.007,-9.604 -24.869,-14.921 L 115.653,56.178 c -5.905,-3.541 -13.457,-2.61 -18.324,2.256 L 54.901,100.86 c -4.867,4.867 -5.797,12.422 -2.256,18.324 0.2,0.335 17.785,29.644 29.271,48.869 -4.712,9.31 -8.665,18.986 -11.817,28.919 -20.002,4.976 -58.223,14.35 -58.671,14.46 C 4.718,213.077 0,219.092 0,226 v 60 c 0,6.909 4.719,12.923 11.429,14.568 0.443,0.109 38.381,9.411 58.687,14.436 3.565,11.302 8.184,22.273 13.796,32.78 l -26.194,43.66 c -3.541,5.902 -2.611,13.458 2.256,18.324 l 42.427,42.427 c 4.867,4.868 12.421,5.797 18.324,2.256 0.369,-0.222 29.463,-17.678 43.746,-26.227 10.419,5.547 21.313,10.131 32.547,13.692 l 14.416,58.66 C 213.079,507.284 219.093,512 226,512 h 60 c 6.904,0 12.917,-4.713 14.566,-11.418 l 14.427,-58.669 c 11.539,-3.661 22.671,-8.39 33.257,-14.128 14.427,8.656 44.444,26.667 44.444,26.667 5.901,3.541 13.457,2.612 18.324,-2.256 l 42.426,-42.427 c 4.867,-4.867 5.797,-12.422 2.256,-18.324 0,0 -18.271,-30.452 -26.958,-44.931 5.308,-10.088 9.712,-20.634 13.161,-31.511 17.824,-4.399 58.19,-14.317 58.676,-14.436 C 507.285,298.919 512,292.906 512,286 v -60 c 0,-6.905 -4.713,-12.917 -11.418,-14.566 z M 482,274.24 c -17.32,4.257 -48.723,11.979 -54.72,13.479 l -1.131,0.283 c -5.231,1.36 -9.326,5.43 -10.719,10.653 -3.795,14.229 -9.495,27.872 -16.942,40.548 -2.779,4.732 -2.753,10.605 0.069,15.312 0.78,1.301 16.489,27.483 25.393,42.322 L 398.087,422.7 c -15.046,-9.027 -41.716,-25.029 -41.942,-25.165 -4.775,-2.866 -10.743,-2.853 -15.501,0.035 -13,7.885 -27.109,13.892 -41.938,17.854 -5.177,1.383 -9.224,5.422 -10.614,10.597 -0.828,3.081 -1.644,6.34 -1.658,6.397 L 274.241,482 h -36.479 l -10.813,-44.042 -2.916,-11.664 c -1.322,-5.292 -5.415,-9.45 -10.686,-10.855 -14.533,-3.876 -28.479,-9.747 -41.449,-17.447 -4.709,-2.797 -10.57,-2.802 -15.285,-0.018 -3.23,1.908 -27.254,16.313 -41.282,24.728 l -25.865,-25.865 24.661,-41.104 c 2.841,-4.736 2.85,-10.65 0.022,-15.395 -7.784,-13.063 -13.685,-27.073 -17.535,-41.643 -1.397,-5.286 -5.56,-9.393 -10.863,-10.719 -10.737,-2.684 -39.564,-9.767 -55.752,-13.741 v -36.473 c 16.342,-4.015 45.537,-11.199 55.762,-13.786 5.271,-1.334 9.408,-5.417 10.812,-10.671 3.564,-13.347 8.822,-26.228 15.63,-38.286 2.646,-4.686 2.578,-10.43 -0.177,-15.053 -7.25,-12.166 -20.08,-33.577 -27.632,-46.172 l 25.865,-25.866 12.42,7.452 c 14.968,8.981 31.98,19.188 32.44,19.463 4.768,2.85 10.722,2.832 15.472,-0.049 13.341,-8.088 27.726,-14.222 42.756,-18.232 5.264,-1.404 9.352,-5.552 10.68,-10.836 0.282,-1.121 9.071,-36.815 13.728,-55.726 h 36.49 c 4.915,19.958 13.621,55.312 13.724,55.722 1.326,5.288 5.417,9.44 10.685,10.845 14.382,3.836 28.193,9.626 41.05,17.208 4.714,2.781 10.57,2.773 15.276,-0.021 4.208,-2.498 28.881,-17.293 43.106,-25.827 l 25.864,25.864 c -9.037,15.062 -25.121,41.869 -25.795,42.991 -2.836,4.725 -2.853,10.625 -0.043,15.367 7.628,12.872 13.451,26.714 17.308,41.141 1.382,5.167 5.408,9.207 10.57,10.604 3.097,0.839 6.373,1.657 6.428,1.671 L 482,237.758 Z"
           id="path5140" />
      </g>
    </g>
    <circle
       style="opacity:1;fill:#000000;fill-opacity:1;stroke:none;stroke-width:0.38948694;stroke-opacity:1;paint-order:fill markers stroke"
       id="path5786"
       cx="49.499523"
       cy="120.73504"
       r="16.721254" />
    <circle
       style="opacity:1;fill:#ffffff;fill-opacity:1;stroke:none;stroke-width:0.40083268;stroke-opacity:1;paint-order:fill markers stroke"
       id="path5790"
       cx="49.838356"
       cy="120.85246"
       r="13.969125" />
  </g>
  <g
     inkscape:groupmode="layer"
     id="layer2"
     inkscape:label="text"
     transform="translate(-11.673785,-86.555331)">
    <flowRoot
       xml:space="preserve"
       id="flowRoot5747"
       style="font-style:normal;font-variant:normal;font-weight:normal;font-stretch:normal;font-size:96px;line-height:1.25;font-family:'Century Gothic';-inkscape-font-specification:'Century Gothic, Normal';font-variant-ligatures:normal;font-variant-caps:normal;font-variant-numeric:normal;font-feature-settings:normal;text-align:start;letter-spacing:0px;word-spacing:0px;writing-mode:lr-tb;text-anchor:start;fill:#000000;fill-opacity:1;stroke:none"
       transform="matrix(0.26458333,0,0,0.26458333,-4.0298878,66.577368)"><flowRegion
         id="flowRegion5749"
         style="font-style:normal;font-variant:normal;font-weight:normal;font-stretch:normal;font-size:96px;font-family:'Century Gothic';-inkscape-font-specification:'Century Gothic, Normal';font-variant-ligatures:normal;font-variant-caps:normal;font-variant-numeric:normal;font-feature-settings:normal;text-align:start;writing-mode:lr-tb;text-anchor:start"><rect
           id="rect5751"
           width="127.27922"
           height="108.08632"
           x="160.61426"
           y="151.76309"
           style="font-style:normal;font-variant:normal;font-weight:normal;font-stretch:normal;font-size:96px;font-family:'Century Gothic';-inkscape-font-specification:'Century Gothic, Normal';font-variant-ligatures:normal;font-variant-caps:normal;font-variant-numeric:normal;font-feature-settings:normal;text-align:start;writing-mode:lr-tb;text-anchor:start" /></flowRegion><flowPara
         id="flowPara5753">G</flowPara></flowRoot>  </g>
</svg>
